<svg xmlns="http://www.w3.org/2000/svg" xmlns:xlink="http://www.w3.org/1999/xlink" width="19" height="19" viewBox="0 0 19 19"><defs><path id="a" d="M1351 30.5l-1.5 1.5v.24c0 .27-.04.54-.1.79a8.79 8.79 0 0 1-3.4 6.94c-5.31 4.24-11 .5-11 .5 4.5 0 4.5-1.5 4.5-1.5-1 0-3-1.99-3-1.99.5.5 1.5 0 1.5 0-2.5-1.5-2.5-3-2.5-3 .5.5 1.5 0 1.5 0-2.5-1.99-1-4.48-1-4.48.5 2.5 7 3.49 7 3.49l.08-.04a5.9 5.9 0 0 1-.08-.96c0-1.79 1.45-3 3.25-3 .99 0 1.86.46 2.46 1.15l.29-.14 1.5-1-1 2z"/></defs><use fill="#efebe4" xlink:href="#a" transform="translate(-1333 -27)"/></svg>