<svg xmlns="http://www.w3.org/2000/svg" xmlns:xlink="http://www.w3.org/1999/xlink" width="17" height="19" viewBox="0 0 17 19"><defs><path id="qftpa" d="M1418.5 27h9a2.5 2.5 0 0 1 2.5 2.5v11a2.5 2.5 0 0 1-2.5 2.5h-9a2.5 2.5 0 0 1-2.5-2.5v-11a2.5 2.5 0 0 1 2.5-2.5zm-1.5 9v4c0 1.1.9 2 2 2h8a2 2 0 0 0 2-2v-6h-1v.27l-.02-.02.02.5c0 2.9-2.24 5.25-5 5.25a5.13 5.13 0 0 1-4.98-5.75l-.02.02V34h-1v2zm2-1a4 4 0 1 0 8 0 4 4 0 0 0-8 0zm7-4h2v-2h-2z"/></defs><g><g transform="translate(-1414 -25)"><use fill="#efebe4" xlink:href="#qftpa"/></g></g></svg>