<?xml version="1.0" encoding="UTF-8"?><!DOCTYPE svg PUBLIC "-//W3C//DTD SVG 1.1//EN" "http://www.w3.org/Graphics/SVG/1.1/DTD/svg11.dtd"><svg xmlns="http://www.w3.org/2000/svg" xmlns:xlink="http://www.w3.org/1999/xlink"><defs><path id="dashed-line-a" d="M705 431c25.43 0 25.9 9 48 9s29.21-9 47-9 29.05 9 47 9 24.23-9 48-9"/><filter id="dashed-line-b" width="210" height="30" x="695" y="421" filterUnits="userSpaceOnUse"><feOffset dy="1" in="SourceGraphic" result="FeOffset1049Out"/><feGaussianBlur in="FeOffset1049Out" result="FeGaussianBlur1050Out" stdDeviation="0 0"/></filter><clipPath id="dashed-line-c"><use fill="#fff" xlink:href="#dashed-line-a"/></clipPath><path id="facebook-a" d="M1382 43v-7h-3v-2h3v-3c0-2.34 1.18-3 3.23-3 .98 0 1.5.11 1.74.14v2.37h-1.74c-1.1 0-1.23 1.7-1.23 2.49v1h3l-.5 2h-2.5v7z"/><path id="instagram-a" d="M1418.5 27h9a2.5 2.5 0 0 1 2.5 2.5v11a2.5 2.5 0 0 1-2.5 2.5h-9a2.5 2.5 0 0 1-2.5-2.5v-11a2.5 2.5 0 0 1 2.5-2.5zm-1.5 9v4c0 1.1.9 2 2 2h8a2 2 0 0 0 2-2v-6h-1v.27l-.02-.02.02.5c0 2.9-2.24 5.25-5 5.25a5.13 5.13 0 0 1-4.98-5.75l-.02.02V34h-1v2zm2-1a4 4 0 1 0 8 0 4 4 0 0 0-8 0zm7-4h2v-2h-2z"/><path id="twitter-a" d="M1351 30.5l-1.5 1.5v.24c0 .27-.04.54-.1.79a8.79 8.79 0 0 1-3.4 6.94c-5.31 4.24-11 .5-11 .5 4.5 0 4.5-1.5 4.5-1.5-1 0-3-1.99-3-1.99.5.5 1.5 0 1.5 0-2.5-1.5-2.5-3-2.5-3 .5.5 1.5 0 1.5 0-2.5-1.99-1-4.48-1-4.48.5 2.5 7 3.49 7 3.49l.08-.04a5.9 5.9 0 0 1-.08-.96c0-1.79 1.45-3 3.25-3 .99 0 1.86.46 2.46 1.15l.29-.14 1.5-1-1 2z"/></defs><symbol id="dashed-line" viewBox="0 0 193 15"><g transform="translate(-703 -429)"><use fill="none" stroke="#3d3029" stroke-width="2" filter="url(#dashed-line-b)" xlink:href="#dashed-line-a"/><use fill="#fff" fill-opacity="0" stroke="#fff" stroke-dasharray="8 16" stroke-miterlimit="50" stroke-width="4" clip-path="url(&quot;#dashed-line-c&quot;)" xlink:href="#dashed-line-a"/></g></symbol><symbol id="facebook" viewBox="0 0 11 17"><use fill="#efebe4" transform="translate(-1377 -27)" xlink:href="#facebook-a"/></symbol><symbol id="instagram" viewBox="0 0 17 19"><use fill="#efebe4" transform="translate(-1414 -25)" xlink:href="#instagram-a"/></symbol><symbol id="twitter" viewBox="0 0 19 19"><use fill="#efebe4" transform="translate(-1333 -27)" xlink:href="#twitter-a"/></symbol></svg>